<svg xmlns="http://www.w3.org/2000/svg" viewBox="0 0 64 64">
  <rect width="64" height="64" rx="16" fill="#f7efe4"/>
  <path d="M17 25 13 9l14 8Zm30 0 4-16-14 8Z" fill="#d96d22" stroke="#8b3f18" stroke-width="2" stroke-linejoin="round"/>
  <path d="M13 33c0-13 8-22 19-22s19 9 19 22c0 12-8 21-19 21s-19-9-19-21Z" fill="#e9832d"/>
  <path d="M19 36c2-8 7-12 13-12s11 4 13 12c2 10-4 18-13 18s-15-8-13-18Z" fill="#fff7ed"/>
  <path d="M22 28c-2-2-4-4-5-8 4 1 7 3 9 5Z" fill="#f2a45d"/>
  <path d="M42 28c2-2 4-4 5-8-4 1-7 3-9 5Z" fill="#f2a45d"/>
  <circle cx="24" cy="33" r="3.1" fill="#20231f"/>
  <circle cx="40" cy="33" r="3.1" fill="#20231f"/>
  <circle cx="25" cy="32" r="1" fill="#fff"/>
  <circle cx="41" cy="32" r="1" fill="#fff"/>
  <path d="M29 40c1-2 5-2 6 0-.5 2-1.8 3-3 3s-2.5-1-3-3Z" fill="#26231f"/>
  <path d="M32 43v3M32 46c-2 0-4-1-5-3M32 46c2 0 4-1 5-3" fill="none" stroke="#26231f" stroke-width="2" stroke-linecap="round"/>
  <path d="M20 25c3-2 6-3 9-2M35 23c3-1 6 0 9 2" fill="none" stroke="#8b3f18" stroke-width="2" stroke-linecap="round" opacity=".45"/>
</svg>
